<?xml version="1.0" encoding="utf-8"?>
<!-- Generator: Adobe Illustrator 25.2.1, SVG Export Plug-In . SVG Version: 6.00 Build 0)  -->
<svg version="1.1" id="图层_1" xmlns="http://www.w3.org/2000/svg" xmlns:xlink="http://www.w3.org/1999/xlink" x="0px" y="0px"
	 viewBox="0 0 300 77" style="enable-background:new 0 0 300 77;" xml:space="preserve">
<style type="text/css">
	.st0{fill:#231815;stroke:#231815;stroke-miterlimit:10;}
</style>
<g>
	<path class="st0" d="M60.5,62.7c-1.5-0.6-2.6-1-3.1-1.4c-0.6-0.4-1.2-0.9-2-1.7c-0.8-0.8-2.4-2.5-4.8-5.1c-2.5-2.7-3.7-4.1-3.7-4.3
		c0-0.2,2.5-2.6,7.4-7.1c-0.8-1.1-1.7-3.8-2.9-8c-1.1-4.2-1.5-7-1.1-8.6c4.2,3.8,6.6,6.9,7.3,9.3c0.7,2.4,1.2,3.7,1.6,3.8l3.1-2.6
		l0.3-2.6l-3.7-18.2c0.4-1.1,0.8-1.8,1.1-2c0.4-0.2,1.1-0.1,2.3,0.3c1.1,0.4,2.6,2.2,4.3,5.4c1.7,3.2,2.6,5,2.6,5.4
		c0,0.4-0.6,3.2-1.7,8.6l3.4-2.9c-2.7,4.2-4,6.4-4,6.6c0,0.2-0.3,2.3-0.9,6.3s-0.1,8.3,1.4,12.8L65,55.6c0,1.1-0.4,3.8-1.1,8
		C63.1,63.6,62,63.3,60.5,62.7z M55,50.9c-0.6,0.1-1.4,0.3-2.6,0.7c0.8,1.1,2.1,2,4,2.6c1.9,0.6,3.1,0.6,3.6,0
		c0.5-0.6-0.4-2.2-2.7-4.8C56.4,50.3,55.6,50.8,55,50.9z M63.3,25.1c0.4-3.2,0.2-5.6-0.6-7.1c-0.8-1.5-1.4-2.4-2-2.6
		c-0.6-0.2-1-0.2-1.1,0c-0.2,0.2,0.8,6.1,2.9,17.7C62.6,31,62.9,28.3,63.3,25.1z M85.7,30.9c-0.3,0.5,0.2,0.7,1.4,0.7
		c1.2,0,2.4-0.3,3.6-0.9s1.8-0.9,2-0.9c0.2,0,0.8,0.3,1.7,0.9c0.9,0.6,1.5,1.1,1.7,1.7c0.2,0.6,0.3,1.2,0.3,2
		c-6.8,2.3-10.4,3.6-10.6,4c-0.2,0.4-0.3,0.9-0.3,1.4s1.6,2.1,4.8,4.6c3.2,2.5,7,4.6,11.4,6.3c4.4,1.7,6.7,2.8,6.8,3.1
		c0.2,0.4,0.3,1.1,0.3,2.3c-3,0.8-5.6,1-7.7,0.9c-2.1-0.2-7.3-3.7-15.7-10.6c-0.4,1.9-0.3,4.8,0.3,8.6c0.6,3.8,0.1,8.2-1.4,13.1
		c-0.8,0-1.6-0.8-2.6-2.3c-1-1.5-3.3-5.5-7.1-12c4.2,2.7,6.5,3.9,6.8,3.7c0.4-0.2,0.7-0.6,0.9-1.1c0.2-0.6,0.1-4.5-0.3-11.7
		c-1.5-0.4-2.7,0.2-3.4,1.7C77.9,48,77,49.7,76,51.6c-1,1.9-2.2,3.2-3.4,4c-1.2,0.8-2.2,1.1-3,1.1c-0.8,0-1.5-0.6-2.3-1.7
		c3.8-3,6.5-6.7,8-10.8l-2.9,1.1c-0.8-0.8-1.2-1.8-1.4-3.1c-0.2-1.3,0-2.6,0.6-3.7s1.1-1.7,1.7-1.7s3.5-2.9,8.8-8.8
		c-2.7,0.2-6.3-0.5-10.8-2c0-1.1,0.9-2.2,2.9-3.1c1.9-0.9,3.8-1.9,5.7-2.9c1.9-0.9,2.9-1.9,3.1-2.9c0.2-0.9,0.3-1.8,0.3-2.6
		c0-0.8-0.4-2.5-1.1-5.1c-0.4,2.3-0.5,4.8-0.3,7.4c-1.3-4.9-2-7.6-2-8c0-0.4,0.3-0.8,1-1.3c0.7-0.5,1.4-0.7,2.1-0.7
		c0.8,0,1.7,0.3,2.7,1c1,0.7,1.8,1.4,2.1,2.1c0.4,0.8,0.6,1.7,0.6,2.9s-0.2,2.9-0.6,5.1c2.7,1.1,4,2,4,2.6s-1,2.3-2.9,5.3
		C87.1,28.8,86,30.5,85.7,30.9z"/>
	<path class="st0" d="M132.6,55.6c-2.1-2.7-3.1-4.6-3.1-5.7s-0.1-2-0.3-2.6c-0.2-0.6-0.2-1.1,0-1.7c0.2-0.6,1.3-1.5,3.4-2.9
		c2.1-1.3,5.9-2.9,11.5-4.8c5.6-1.9,8.3-3.4,8.1-4.6c-3.4,0.8-5.5,1.1-6.3,1.1c-0.8,0-1.3-0.2-1.7-0.6c-0.4-0.4-0.7-1-0.9-2
		c-0.2-0.9-0.3-1.6-0.3-2c0-0.4,1.1-2.1,3.4-5.1l0.6,0.6c0.8-0.4,2.8,0.5,6,2.6c3.2,2.1,4.9,3.5,5.1,4.3c0.2,0.8,0.6,1.1,1.1,1.1
		s1.9,0.4,4,1.1c2.1,0.8,3.4,1.6,4,2.6c0.6,1,0.8,1.8,0.6,2.6c-0.2,0.8-0.7,1.2-1.4,1.4c-0.8,0.2-1.9,0.1-3.4-0.3
		c-1.5-0.4-2.4-0.6-2.6-0.6c-0.2,0-0.4,0.2-0.6,0.6c-0.2,0.4-0.3,1-0.3,2c0,1-0.5,4.7-1.4,11.1c-1,6.5-2.3,10.6-4,12.3s-3,2.6-4,2.6
		c-1,0-3.6-1.5-8-4.6C137.9,61.1,134.7,58.3,132.6,55.6z M153.4,40.2c-0.4-0.4-1.5-0.4-3.4,0c-1.9,0.4-5.1,2-9.7,4.8
		s-6.9,4.8-7.1,5.7c-0.2,1,0.3,2.2,1.4,3.7c1.1,1.5,3.8,3.1,8,4.8c4.2,1.7,6.5,2.6,6.8,2.6c0.4,0,0.9-0.1,1.4-0.3
		c0.6-0.2,1.3-3.3,2.3-9.4c0.9-6.1,1.3-9.5,1.1-10.3C154.1,41.2,153.8,40.6,153.4,40.2z M158,13.4c-2.7,1.1-4.8,2.2-6.3,3.1
		c-1.5,1-7,5.6-16.5,14c-0.8-0.8-1.2-1.5-1.4-2.3c-0.2-0.8-0.3-1.8-0.3-3.1c0-1.3,0.2-2.4,0.6-3.1c0.4-0.8,1-1.3,2-1.7
		c0.9-0.4,2.2-1.5,3.7-3.4l-1.7-4.6c3.8,2.3,7.9,2.5,12.3,0.6c4.4-1.9,6.9-2.8,7.7-2.6c0.8,0.2,1.9,1.1,3.4,2.9
		c1.5,1.7,2.2,3.1,2,4.3c-0.2,1.1-1,2.3-2.3,3.4c-1.3,1.1-5.4,3.6-12.3,7.4C148.9,26.3,151.9,21.4,158,13.4z"/>
	<path class="st0" d="M203.9,58.2c0.6-1.5,1.3-2.8,2.3-3.7c0.9-0.9,1.6-1,2-0.3c0.4,0.8,1.4,1.6,3.1,2.6c1.7,1,2.9,1.3,3.7,1.1
		c0.8-0.2,1.2-0.7,1.4-1.4c0.2-0.8,0.2-1.5,0-2.3c-0.2-0.8-0.7-1.4-1.4-2c-0.8-0.6-1.1-1.3-1.1-2.3c0-0.9,0.8-2,2.3-3.1
		c3.4,2.3,5.2,3.9,5.4,4.8c0.2,1-0.1,2.9-0.9,6c3-0.8,4.7-1.1,4.8-1.1c0.2,0,0.5,0.1,0.9,0.3c0.4,0.2,0.7-0.3,0.9-1.4
		c0.2-1.1-0.1-2.5-0.9-4c-0.8-1.5-0.5-2.3,0.9-2.3c1.3,0,2.6,0.9,3.7,2.6s1.6,2.9,1.4,3.6c-0.2,0.7-2,3.8-5.4,9.3
		c-1.1-2.3-2.3-3.3-3.6-3c-1.2,0.3-4.1,1.3-8.7,3.1c-4.6,1.8-7.2,2.8-7.8,3c-0.7,0.2-1.5-0.6-2.4-2.3c-1-1.7-1.4-2.9-1.4-3.7
		C203,60.8,203.3,59.7,203.9,58.2z M208.5,60.2c-0.2,0.9,0,1.4,0.6,1.4s2-0.6,4.3-1.7l-5.1-4.6c-0.4,0.8-0.4,1.5,0,2.3
		C208.6,58.4,208.6,59.2,208.5,60.2z M236.3,71.3c-1.2,1.1-2.1,1.8-2.6,1.9c-0.5,0.1-1.8-0.7-3.8-2.4c-2.1-1.7-4.2-4.2-6.3-7.4
		c3.8,1.1,6.4,1.6,7.7,1.4c1.3-0.2,2.4-0.6,3.1-1.1c0.8-0.6,1.8-3,3.1-7.4c1.3-4.4,2-7.1,2-8.3s-1.1-2-3.4-2.6s-7,0.3-14.3,2.6
		c-7.2,2.3-11,3.2-11.4,2.9c-0.4-0.4-0.7-1-0.9-2c-0.2-0.9-0.3-1.9-0.3-2.9c0-0.9,0.4-2.5,1.1-4.6c0.8-2.1,1.1-4.2,1.1-6.3
		c0-2.1,0.4-3.6,1.1-4.6c0.8-0.9,1.1-1,1.1-0.3c0,0.8,0.4,2.7,1.1,5.7c0.8,3,0.8,5.5,0,7.4c1.1,0,4.7-0.5,10.6-1.6
		c5.9-1,10.8-0.6,14.8,1.4s6.1,3.6,6.3,4.7c0.2,1.1-0.2,3.2-1.1,6.3c-1,3-2.4,6.4-4.4,10C239.1,67.8,237.5,70.2,236.3,71.3z
		 M218.7,7.1c-0.2-0.6-0.6-1.3-1.1-2.3c-0.6-0.9-0.7-1.4-0.3-1.4c0.4,0,1.4,0.3,3.1,0.9s2.9,1.4,3.7,2.6c0.8,1.1,0.6,2.5-0.6,4
		c-1.1,1.5-1.6,2.4-1.4,2.6c0.2,0.2,1.5,0,4-0.6c2.5-0.6,5.1,0,8,1.7s4.3,2.9,4.3,3.7c0,0.8-0.2,1.6-0.6,2.6c-0.4,1-1.7,4-4,9.1
		s-4.4,8-6.3,8.6c-1.9,0.6-4.3-0.3-7.1-2.6s-4.3-3.6-4.3-4c0-0.4-0.1-0.9-0.3-1.7c-0.2-0.8,0-1.9,0.6-3.4c0.6-1.5,1.4-2.6,2.6-3.1
		s2.5-0.5,4,0.3c1.5,0.8,2.4,1.5,2.6,2.3c0.2,0.8,0.3,1.4,0.3,2s-0.2,1.2-0.6,2c-0.4,0.8-1.2,1.4-2.6,2c-1.3,0.6-3.1,0.1-5.4-1.4
		c2.3-1.1,3.1-1.9,2.6-2.3c-0.6-0.4-1.3-0.2-2.3,0.6c-1,0.8-1.3,1.4-1.1,2c0.2,0.6,1.2,1.3,3.1,2.3c1.9,1,3.2,1.4,4,1.4
		c0.8,0,1.5-0.3,2.3-0.9c0.8-0.6,1.9-3.3,3.4-8.3c1.5-4.9,2.2-7.7,2-8.3c-0.2-0.6-1.7-0.6-4.4,0c-2.8,0.6-5.5,2-8.3,4.3
		c-2.8,2.3-4.5,3-5.3,2.3c-0.8-0.8-1.2-2-1.4-3.7c-0.2-1.7-0.2-2.9,0-3.4c0.2-0.6,0.9-1.2,2.3-2c1.3-0.8,2.5-2,3.4-3.7
		c0.9-1.7,1.4-2.7,1.4-2.9C219,8.1,218.9,7.7,218.7,7.1z"/>
</g>
</svg>
